<svg xmlns="http://www.w3.org/2000/svg" style="display:none">
  <symbol id="icon-user" viewBox="0 0 24 24">
    <circle cx="12" cy="8" r="3.5" fill="none" stroke="currentColor" stroke-width="1.8" stroke-linecap="round" stroke-linejoin="round"/>
    <path d="M5 19c1.7-3 4.1-4.5 7-4.5s5.3 1.5 7 4.5" fill="none" stroke="currentColor" stroke-width="1.8" stroke-linecap="round" stroke-linejoin="round"/>
  </symbol>
  <symbol id="icon-users" viewBox="0 0 24 24">
    <circle cx="9" cy="8" r="3" fill="none" stroke="currentColor" stroke-width="1.8" stroke-linecap="round" stroke-linejoin="round"/>
    <circle cx="16.5" cy="9" r="2.5" fill="none" stroke="currentColor" stroke-width="1.8" stroke-linecap="round" stroke-linejoin="round"/>
    <path d="M3.8 20c1.5-3 3.8-4.5 6.2-4.5s4.7 1.5 6.2 4.5" fill="none" stroke="currentColor" stroke-width="1.8" stroke-linecap="round" stroke-linejoin="round"/>
    <path d="M13.6 16.2c1.8.3 3.3 1.5 4.6 3.8" fill="none" stroke="currentColor" stroke-width="1.8" stroke-linecap="round" stroke-linejoin="round"/>
  </symbol>
  <symbol id="icon-building" viewBox="0 0 24 24">
    <path d="M6 20V7l6-2 6 2v13" fill="none" stroke="currentColor" stroke-width="1.8" stroke-linejoin="round"/>
    <path d="M10 20v-4h4v4" fill="none" stroke="currentColor" stroke-width="1.8" stroke-linejoin="round"/>
    <path d="M9 10h.01M12 10h.01M15 10h.01M9 13h.01M12 13h.01M15 13h.01" fill="none" stroke="currentColor" stroke-width="1.8" stroke-linecap="round" stroke-linejoin="round"/>
  </symbol>
  <symbol id="icon-chart-bar" viewBox="0 0 24 24">
    <path d="M6 18V11" fill="none" stroke="currentColor" stroke-width="1.8" stroke-linecap="round"/>
    <path d="M12 18V7" fill="none" stroke="currentColor" stroke-width="1.8" stroke-linecap="round"/>
    <path d="M18 18V13" fill="none" stroke="currentColor" stroke-width="1.8" stroke-linecap="round"/>
  </symbol>
  <symbol id="icon-file-text" viewBox="0 0 24 24">
    <path d="M8 4.5h8l2 2V19a1 1 0 0 1-1 1H8a1 1 0 0 1-1-1V5.5a1 1 0 0 1 1-1Z" fill="none" stroke="currentColor" stroke-width="1.8" stroke-linejoin="round"/>
    <path d="M9.5 10h5" fill="none" stroke="currentColor" stroke-width="1.8" stroke-linecap="round"/>
    <path d="M9.5 14h5" fill="none" stroke="currentColor" stroke-width="1.8" stroke-linecap="round"/>
  </symbol>
  <symbol id="icon-settings" viewBox="0 0 24 24">
    <circle cx="12" cy="12" r="3" fill="none" stroke="currentColor" stroke-width="1.8" stroke-linecap="round" stroke-linejoin="round"/>
    <path d="M12 2.5v3M12 18.5v3M2.5 12h3M18.5 12h3" fill="none" stroke="currentColor" stroke-width="1.8" stroke-linecap="round" stroke-linejoin="round"/>
    <path d="M4.6 4.6l2.1 2.1M17.3 17.3l2.1 2.1M19.4 4.6l-2.1 2.1M6.7 17.3l-2.1 2.1" fill="none" stroke="currentColor" stroke-width="1.8" stroke-linecap="round" stroke-linejoin="round"/>
  </symbol>
  <symbol id="icon-menu" viewBox="0 0 24 24">
    <path d="M4.5 6h15" fill="none" stroke="currentColor" stroke-width="1.8" stroke-linecap="round"/>
    <path d="M4.5 12h15" fill="none" stroke="currentColor" stroke-width="1.8" stroke-linecap="round"/>
    <path d="M4.5 18h15" fill="none" stroke="currentColor" stroke-width="1.8" stroke-linecap="round"/>
  </symbol>
  <symbol id="icon-bolt" viewBox="0 0 24 24">
    <path d="M13 2 4 14h7l-1 8 10-12h-7l1-8Z" fill="none" stroke="currentColor" stroke-width="1.8" stroke-linejoin="round"/>
  </symbol>
  <symbol id="icon-save" viewBox="0 0 24 24">
    <path d="M5 4h13l2 2v14a1 1 0 0 1-1 1H5a1 1 0 0 1-1-1V5a1 1 0 0 1 1-1Z" fill="none" stroke="currentColor" stroke-width="1.8" stroke-linejoin="round"/>
    <path d="M7 4v6h10V4" fill="none" stroke="currentColor" stroke-width="1.8" stroke-linejoin="round"/>
    <rect x="8" y="14" width="8" height="6" rx="1.5" fill="none" stroke="currentColor" stroke-width="1.8" stroke-linejoin="round"/>
  </symbol>
  <symbol id="icon-phone" viewBox="0 0 24 24">
    <rect x="7" y="2.5" width="10" height="19" rx="2.2" fill="none" stroke="currentColor" stroke-width="1.8" stroke-linejoin="round"/>
    <path d="M11 18.5h2" fill="none" stroke="currentColor" stroke-width="1.8" stroke-linecap="round"/>
  </symbol>
  <symbol id="icon-mail" viewBox="0 0 24 24">
    <rect x="4" y="6" width="16" height="12" rx="2" fill="none" stroke="currentColor" stroke-width="1.8" stroke-linejoin="round"/>
    <path d="M4 8l8 6 8-6" fill="none" stroke="currentColor" stroke-width="1.8" stroke-linecap="round" stroke-linejoin="round"/>
  </symbol>
  <symbol id="icon-clipboard" viewBox="0 0 24 24">
    <rect x="6" y="5.5" width="12" height="16" rx="2" fill="none" stroke="currentColor" stroke-width="1.8" stroke-linejoin="round"/>
    <path d="M9 5.5V4.5a3 3 0 0 1 6 0v1" fill="none" stroke="currentColor" stroke-width="1.8" stroke-linecap="round" stroke-linejoin="round"/>
    <rect x="9" y="3" width="6" height="4" rx="1.5" fill="none" stroke="currentColor" stroke-width="1.8" stroke-linejoin="round"/>
  </symbol>
  <symbol id="icon-credit-card" viewBox="0 0 24 24">
    <rect x="3" y="6" width="18" height="12" rx="2" fill="none" stroke="currentColor" stroke-width="1.8" stroke-linejoin="round"/>
    <path d="M3 10h18" fill="none" stroke="currentColor" stroke-width="1.8" stroke-linecap="round"/>
    <path d="M7 15h5" fill="none" stroke="currentColor" stroke-width="1.8" stroke-linecap="round"/>
  </symbol>
  <symbol id="icon-lightbulb" viewBox="0 0 24 24">
    <path d="M9 18c0-2-3-3.6-3-7a6 6 0 1 1 12 0c0 3.4-3 5-3 7" fill="none" stroke="currentColor" stroke-width="1.8" stroke-linecap="round" stroke-linejoin="round"/>
    <path d="M10 18h4M10 22h4" fill="none" stroke="currentColor" stroke-width="1.8" stroke-linecap="round"/>
  </symbol>
  <symbol id="icon-circle-check" viewBox="0 0 24 24">
    <circle cx="12" cy="12" r="9" fill="none" stroke="currentColor" stroke-width="1.8" stroke-linecap="round" stroke-linejoin="round"/>
    <path d="M8 12l2.5 2.5L16 9" fill="none" stroke="currentColor" stroke-width="1.8" stroke-linecap="round" stroke-linejoin="round"/>
  </symbol>
  <symbol id="icon-triangle-alert" viewBox="0 0 24 24">
    <path d="M12 3 22 21H2L12 3Z" fill="none" stroke="currentColor" stroke-width="1.8" stroke-linejoin="round"/>
    <path d="M12 9v5" fill="none" stroke="currentColor" stroke-width="1.8" stroke-linecap="round"/>
    <circle cx="12" cy="17" r="0.7" fill="none" stroke="currentColor" stroke-width="1.8" stroke-linecap="round"/>
  </symbol>
  <symbol id="icon-bot" viewBox="0 0 24 24">
    <path d="M12 3v3" fill="none" stroke="currentColor" stroke-width="1.8" stroke-linecap="round"/>
    <rect x="5" y="7" width="14" height="12" rx="3" fill="none" stroke="currentColor" stroke-width="1.8" stroke-linejoin="round"/>
    <circle cx="9" cy="12" r="1" fill="none" stroke="currentColor" stroke-width="1.8"/>
    <circle cx="15" cy="12" r="1" fill="none" stroke="currentColor" stroke-width="1.8"/>
    <path d="M9 15h6" fill="none" stroke="currentColor" stroke-width="1.8" stroke-linecap="round"/>
  </symbol>
  <symbol id="icon-target" viewBox="0 0 24 24">
    <circle cx="12" cy="12" r="9" fill="none" stroke="currentColor" stroke-width="1.8" stroke-linecap="round" stroke-linejoin="round"/>
    <circle cx="12" cy="12" r="5" fill="none" stroke="currentColor" stroke-width="1.8" stroke-linecap="round" stroke-linejoin="round"/>
    <path d="M12 3v3M12 18v3M3 12h3M18 12h3" fill="none" stroke="currentColor" stroke-width="1.8" stroke-linecap="round" stroke-linejoin="round"/>
  </symbol>
  <symbol id="icon-clock" viewBox="0 0 24 24">
    <circle cx="12" cy="12" r="9" fill="none" stroke="currentColor" stroke-width="1.8" stroke-linecap="round" stroke-linejoin="round"/>
    <path d="M12 7v5l3 2" fill="none" stroke="currentColor" stroke-width="1.8" stroke-linecap="round" stroke-linejoin="round"/>
  </symbol>
  <symbol id="icon-shield-check" viewBox="0 0 24 24">
    <path d="M12 2 19 6v6c0 5-3 9-7 10-4-1-7-5-7-10V6l7-4Z" fill="none" stroke="currentColor" stroke-width="1.8" stroke-linejoin="round"/>
    <path d="M9 12l2 2 4-4" fill="none" stroke="currentColor" stroke-width="1.8" stroke-linecap="round" stroke-linejoin="round"/>
  </symbol>
  <symbol id="icon-lock" viewBox="0 0 24 24">
    <path d="M8 11V8a4 4 0 0 1 8 0v3" fill="none" stroke="currentColor" stroke-width="1.8" stroke-linecap="round"/>
    <rect x="6" y="11" width="12" height="10" rx="2" fill="none" stroke="currentColor" stroke-width="1.8" stroke-linejoin="round"/>
    <path d="M12 16v2" fill="none" stroke="currentColor" stroke-width="1.8" stroke-linecap="round"/>
  </symbol>
  <symbol id="icon-key" viewBox="0 0 24 24">
    <circle cx="7.5" cy="14.5" r="3.5" fill="none" stroke="currentColor" stroke-width="1.8" stroke-linecap="round" stroke-linejoin="round"/>
    <path d="M11 14.5h10" fill="none" stroke="currentColor" stroke-width="1.8" stroke-linecap="round" stroke-linejoin="round"/>
    <path d="M17 14.5v3M20 14.5v2" fill="none" stroke="currentColor" stroke-width="1.8" stroke-linecap="round"/>
  </symbol>
  <symbol id="icon-monitor" viewBox="0 0 24 24">
    <rect x="3" y="5" width="18" height="12" rx="2" fill="none" stroke="currentColor" stroke-width="1.8" stroke-linejoin="round"/>
    <path d="M12 17v4" fill="none" stroke="currentColor" stroke-width="1.8" stroke-linecap="round"/>
    <path d="M8 21h8" fill="none" stroke="currentColor" stroke-width="1.8" stroke-linecap="round"/>
  </symbol>
  <symbol id="icon-plug" viewBox="0 0 24 24">
    <path d="M9 3v5M15 3v5" fill="none" stroke="currentColor" stroke-width="1.8" stroke-linecap="round"/>
    <path d="M8 8h8v5a4 4 0 0 1-8 0V8Z" fill="none" stroke="currentColor" stroke-width="1.8" stroke-linejoin="round"/>
    <path d="M12 13v8" fill="none" stroke="currentColor" stroke-width="1.8" stroke-linecap="round"/>
  </symbol>
  <symbol id="icon-message-square" viewBox="0 0 24 24">
    <path d="M21 15a2 2 0 0 1-2 2H8l-5 5V5a2 2 0 0 1 2-2h14a2 2 0 0 1 2 2Z" fill="none" stroke="currentColor" stroke-width="1.8" stroke-linejoin="round"/>
  </symbol>
  <symbol id="icon-headphones" viewBox="0 0 24 24">
    <path d="M4 14v-2a8 8 0 0 1 16 0v2" fill="none" stroke="currentColor" stroke-width="1.8" stroke-linecap="round"/>
    <rect x="3" y="14" width="4" height="6" rx="2" fill="none" stroke="currentColor" stroke-width="1.8" stroke-linejoin="round"/>
    <rect x="17" y="14" width="4" height="6" rx="2" fill="none" stroke="currentColor" stroke-width="1.8" stroke-linejoin="round"/>
  </symbol>
  <symbol id="icon-bell" viewBox="0 0 24 24">
    <path d="M18 8a6 6 0 0 0-12 0c0 7-3 7-3 7h18s-3 0-3-7" fill="none" stroke="currentColor" stroke-width="1.8" stroke-linecap="round" stroke-linejoin="round"/>
    <path d="M10 19a2 2 0 0 0 4 0" fill="none" stroke="currentColor" stroke-width="1.8" stroke-linecap="round"/>
  </symbol>
  <symbol id="icon-chevron-down" viewBox="0 0 24 24">
    <path d="m7 10 5 5 5-5" fill="none" stroke="currentColor" stroke-width="1.8" stroke-linecap="round" stroke-linejoin="round"/>
  </symbol>
  <symbol id="icon-sun" viewBox="0 0 24 24">
    <circle cx="12" cy="12" r="4" fill="none" stroke="currentColor" stroke-width="1.8" stroke-linecap="round" stroke-linejoin="round"/>
    <path d="M12 2.5v2.5M12 19v2.5M4.2 4.2l1.8 1.8M18 18l1.8 1.8M2.5 12h2.5M19 12h2.5M4.2 19.8 6 18M18 6l1.8-1.8" fill="none" stroke="currentColor" stroke-width="1.8" stroke-linecap="round" stroke-linejoin="round"/>
  </symbol>
  <symbol id="icon-moon" viewBox="0 0 24 24">
    <path d="M21 14.5A7.5 7.5 0 1 1 9.5 3 6 6 0 0 0 21 14.5Z" fill="none" stroke="currentColor" stroke-width="1.8" stroke-linecap="round" stroke-linejoin="round"/>
  </symbol>
  <symbol id="icon-x" viewBox="0 0 24 24">
    <path d="M6 6l12 12M18 6 6 18" fill="none" stroke="currentColor" stroke-width="1.8" stroke-linecap="round" stroke-linejoin="round"/>
  </symbol>
  <symbol id="icon-plus" viewBox="0 0 24 24">
    <path d="M12 5v14M5 12h14" fill="none" stroke="currentColor" stroke-width="1.8" stroke-linecap="round" stroke-linejoin="round"/>
  </symbol>
  <symbol id="icon-flask" viewBox="0 0 24 24">
    <path d="M10 2.5v4L5.6 15a4 4 0 0 0 3.4 6h6a4 4 0 0 0 3.4-6L14 6.5v-4" fill="none" stroke="currentColor" stroke-width="1.8" stroke-linecap="round" stroke-linejoin="round"/>
    <path d="M8.2 14.5h7.6" fill="none" stroke="currentColor" stroke-width="1.8" stroke-linecap="round" stroke-linejoin="round"/>
  </symbol>
  <symbol id="icon-chevron-up" viewBox="0 0 24 24">
    <path d="m7 14 5-5 5 5" fill="none" stroke="currentColor" stroke-width="1.8" stroke-linecap="round" stroke-linejoin="round"/>
  </symbol>
  <symbol id="icon-pencil" viewBox="0 0 24 24">
    <path d="M4.5 19.5l.9-3.6L16.2 5.1a2 2 0 0 1 2.8 2.8L8.1 18.6l-3.6.9Z" fill="none" stroke="currentColor" stroke-width="1.8" stroke-linecap="round" stroke-linejoin="round"/>
    <path d="M14.6 6.7l2.8 2.8" fill="none" stroke="currentColor" stroke-width="1.8" stroke-linecap="round" stroke-linejoin="round"/>
  </symbol>
  <symbol id="icon-trash" viewBox="0 0 24 24">
    <path d="M4.5 7h15" fill="none" stroke="currentColor" stroke-width="1.8" stroke-linecap="round"/>
    <path d="M9.5 7V5.5A1.5 1.5 0 0 1 11 4h2a1.5 1.5 0 0 1 1.5 1.5V7" fill="none" stroke="currentColor" stroke-width="1.8" stroke-linecap="round" stroke-linejoin="round"/>
    <path d="M6.5 7l.7 12.1a1.5 1.5 0 0 0 1.5 1.4h6.6a1.5 1.5 0 0 0 1.5-1.4L17.5 7" fill="none" stroke="currentColor" stroke-width="1.8" stroke-linecap="round" stroke-linejoin="round"/>
    <path d="M10 11v5.5M14 11v5.5" fill="none" stroke="currentColor" stroke-width="1.8" stroke-linecap="round"/>
  </symbol>
  <symbol id="icon-search" viewBox="0 0 24 24">
    <circle cx="11" cy="11" r="6.5" fill="none" stroke="currentColor" stroke-width="1.8" stroke-linecap="round" stroke-linejoin="round"/>
    <path d="M15.8 15.8 20.5 20.5" fill="none" stroke="currentColor" stroke-width="1.8" stroke-linecap="round"/>
  </symbol>
  <symbol id="icon-key-round" viewBox="0 0 24 24">
    <circle cx="8" cy="16" r="4.5" fill="none" stroke="currentColor" stroke-width="1.8" stroke-linecap="round" stroke-linejoin="round"/>
    <path d="M11.2 12.8 20 4" fill="none" stroke="currentColor" stroke-width="1.8" stroke-linecap="round" stroke-linejoin="round"/>
    <path d="M16.3 7.7l3 3" fill="none" stroke="currentColor" stroke-width="1.8" stroke-linecap="round" stroke-linejoin="round"/>
  </symbol>
  <symbol id="icon-languages" viewBox="0 0 24 24">
    <path d="M3.5 6.5h9" fill="none" stroke="currentColor" stroke-width="1.8" stroke-linecap="round"/>
    <path d="M8 4.5v2" fill="none" stroke="currentColor" stroke-width="1.8" stroke-linecap="round"/>
    <path d="M10.5 6.5c-.8 4-3.2 7-6.5 8.5" fill="none" stroke="currentColor" stroke-width="1.8" stroke-linecap="round" stroke-linejoin="round"/>
    <path d="M5.5 6.5c.8 4 3.2 7 6.5 8.5" fill="none" stroke="currentColor" stroke-width="1.8" stroke-linecap="round" stroke-linejoin="round"/>
    <path d="m13.5 20 4.5-9 4.5 9" fill="none" stroke="currentColor" stroke-width="1.8" stroke-linecap="round" stroke-linejoin="round"/>
    <path d="M15.2 16.8h5.6" fill="none" stroke="currentColor" stroke-width="1.8" stroke-linecap="round"/>
  </symbol>
  <symbol id="icon-logout" viewBox="0 0 24 24">
    <path d="M14 4h-7a2 2 0 0 0-2 2v12a2 2 0 0 0 2 2h7" fill="none" stroke="currentColor" stroke-width="1.8" stroke-linecap="round" stroke-linejoin="round"/>
    <path d="M16 8l4 4-4 4M20 12H9" fill="none" stroke="currentColor" stroke-width="1.8" stroke-linecap="round" stroke-linejoin="round"/>
  </symbol>
  <symbol id="icon-check" viewBox="0 0 24 24">
    <path d="M5 12.5l4.5 4.5L19 7.5" fill="none" stroke="currentColor" stroke-width="2.5" stroke-linecap="round" stroke-linejoin="round"/>
  </symbol>
</svg>
